<mxfile host="app.diagrams.net" modified="2023-11-21T09:09:06.508Z" agent="Mozilla/5.0 (Macintosh; Intel Mac OS X 10_15_7) AppleWebKit/537.36 (KHTML, like Gecko) Chrome/119.0.0.0 Safari/537.36" etag="djpjtE2y2b0zxAZWHE1c" version="22.1.3" type="github">
  <diagram name="Page-1" id="2YBvvXClWsGukQMizWep">
    <mxGraphModel dx="1193" dy="1903" grid="1" gridSize="10" guides="1" tooltips="1" connect="1" arrows="1" fold="1" page="1" pageScale="1" pageWidth="850" pageHeight="1100" math="0" shadow="0">
      <root>
        <mxCell id="0" />
        <mxCell id="1" parent="0" />
        <mxCell id="3MXWrsa33R4VXwm1Q6iQ-137" value="" style="group" vertex="1" connectable="0" parent="1">
          <mxGeometry x="20" y="140" width="910" height="470" as="geometry" />
        </mxCell>
        <mxCell id="3MXWrsa33R4VXwm1Q6iQ-1" value="Hệ thống Quản lý CMS&lt;br&gt;(Admin, Tổng đài viên)" style="rounded=0;whiteSpace=wrap;html=1;" vertex="1" parent="3MXWrsa33R4VXwm1Q6iQ-137">
          <mxGeometry x="170" width="140" height="40" as="geometry" />
        </mxCell>
        <mxCell id="3MXWrsa33R4VXwm1Q6iQ-2" value="Trang chủ" style="rounded=0;whiteSpace=wrap;html=1;" vertex="1" parent="3MXWrsa33R4VXwm1Q6iQ-137">
          <mxGeometry y="140" width="90" height="30" as="geometry" />
        </mxCell>
        <mxCell id="3MXWrsa33R4VXwm1Q6iQ-8" style="edgeStyle=orthogonalEdgeStyle;orthogonalLoop=1;jettySize=auto;html=1;entryX=0.5;entryY=0;entryDx=0;entryDy=0;strokeWidth=1;strokeColor=default;rounded=0;endArrow=none;endFill=0;" edge="1" parent="3MXWrsa33R4VXwm1Q6iQ-137" source="3MXWrsa33R4VXwm1Q6iQ-1" target="3MXWrsa33R4VXwm1Q6iQ-2">
          <mxGeometry relative="1" as="geometry">
            <Array as="points">
              <mxPoint x="240" y="80" />
              <mxPoint x="55" y="80" />
            </Array>
          </mxGeometry>
        </mxCell>
        <mxCell id="3MXWrsa33R4VXwm1Q6iQ-3" value="Quản lý tài khoản Tổng đài viên" style="rounded=0;whiteSpace=wrap;html=1;" vertex="1" parent="3MXWrsa33R4VXwm1Q6iQ-137">
          <mxGeometry x="170" y="130" width="110" height="50" as="geometry" />
        </mxCell>
        <mxCell id="3MXWrsa33R4VXwm1Q6iQ-40" style="edgeStyle=orthogonalEdgeStyle;rounded=0;orthogonalLoop=1;jettySize=auto;html=1;entryX=0.5;entryY=0;entryDx=0;entryDy=0;endArrow=none;endFill=0;" edge="1" parent="3MXWrsa33R4VXwm1Q6iQ-137" source="3MXWrsa33R4VXwm1Q6iQ-1" target="3MXWrsa33R4VXwm1Q6iQ-3">
          <mxGeometry relative="1" as="geometry">
            <Array as="points">
              <mxPoint x="240" y="80" />
              <mxPoint x="225" y="80" />
            </Array>
          </mxGeometry>
        </mxCell>
        <mxCell id="3MXWrsa33R4VXwm1Q6iQ-4" value="Quản lý tài khoản Tài xế" style="rounded=0;whiteSpace=wrap;html=1;" vertex="1" parent="3MXWrsa33R4VXwm1Q6iQ-137">
          <mxGeometry x="340" y="130" width="110" height="50" as="geometry" />
        </mxCell>
        <mxCell id="3MXWrsa33R4VXwm1Q6iQ-41" style="edgeStyle=orthogonalEdgeStyle;rounded=0;orthogonalLoop=1;jettySize=auto;html=1;endArrow=none;endFill=0;" edge="1" parent="3MXWrsa33R4VXwm1Q6iQ-137" source="3MXWrsa33R4VXwm1Q6iQ-1" target="3MXWrsa33R4VXwm1Q6iQ-4">
          <mxGeometry relative="1" as="geometry">
            <Array as="points">
              <mxPoint x="240" y="80" />
              <mxPoint x="405" y="80" />
            </Array>
          </mxGeometry>
        </mxCell>
        <mxCell id="3MXWrsa33R4VXwm1Q6iQ-5" value="Quản lý tài khoản Người dùng" style="rounded=0;whiteSpace=wrap;html=1;" vertex="1" parent="3MXWrsa33R4VXwm1Q6iQ-137">
          <mxGeometry x="530" y="130" width="110" height="50" as="geometry" />
        </mxCell>
        <mxCell id="3MXWrsa33R4VXwm1Q6iQ-63" style="edgeStyle=orthogonalEdgeStyle;rounded=0;orthogonalLoop=1;jettySize=auto;html=1;entryX=0.5;entryY=0;entryDx=0;entryDy=0;endArrow=none;endFill=0;" edge="1" parent="3MXWrsa33R4VXwm1Q6iQ-137" source="3MXWrsa33R4VXwm1Q6iQ-1" target="3MXWrsa33R4VXwm1Q6iQ-5">
          <mxGeometry relative="1" as="geometry">
            <Array as="points">
              <mxPoint x="240" y="80" />
              <mxPoint x="585" y="80" />
            </Array>
          </mxGeometry>
        </mxCell>
        <mxCell id="3MXWrsa33R4VXwm1Q6iQ-11" value="Thông báo sự kiện" style="rounded=0;whiteSpace=wrap;html=1;" vertex="1" parent="3MXWrsa33R4VXwm1Q6iQ-137">
          <mxGeometry x="70" y="220" width="70" height="50" as="geometry" />
        </mxCell>
        <mxCell id="3MXWrsa33R4VXwm1Q6iQ-13" style="edgeStyle=orthogonalEdgeStyle;rounded=0;orthogonalLoop=1;jettySize=auto;html=1;entryX=0;entryY=0.5;entryDx=0;entryDy=0;endArrow=none;endFill=0;" edge="1" parent="3MXWrsa33R4VXwm1Q6iQ-137" source="3MXWrsa33R4VXwm1Q6iQ-2" target="3MXWrsa33R4VXwm1Q6iQ-11">
          <mxGeometry relative="1" as="geometry" />
        </mxCell>
        <mxCell id="3MXWrsa33R4VXwm1Q6iQ-15" value="Cập nhật &lt;br&gt;tài khoản" style="rounded=0;whiteSpace=wrap;html=1;" vertex="1" parent="3MXWrsa33R4VXwm1Q6iQ-137">
          <mxGeometry x="250" y="350" width="90" height="50" as="geometry" />
        </mxCell>
        <mxCell id="3MXWrsa33R4VXwm1Q6iQ-49" style="edgeStyle=orthogonalEdgeStyle;rounded=0;orthogonalLoop=1;jettySize=auto;html=1;entryX=0;entryY=0.5;entryDx=0;entryDy=0;endArrow=none;endFill=0;" edge="1" parent="3MXWrsa33R4VXwm1Q6iQ-137" source="3MXWrsa33R4VXwm1Q6iQ-3" target="3MXWrsa33R4VXwm1Q6iQ-15">
          <mxGeometry relative="1" as="geometry" />
        </mxCell>
        <mxCell id="3MXWrsa33R4VXwm1Q6iQ-17" value="Xoá tài khoản" style="rounded=0;whiteSpace=wrap;html=1;" vertex="1" parent="3MXWrsa33R4VXwm1Q6iQ-137">
          <mxGeometry x="250" y="420" width="95" height="50" as="geometry" />
        </mxCell>
        <mxCell id="3MXWrsa33R4VXwm1Q6iQ-50" style="edgeStyle=orthogonalEdgeStyle;rounded=0;orthogonalLoop=1;jettySize=auto;html=1;entryX=0;entryY=0.5;entryDx=0;entryDy=0;endArrow=none;endFill=0;" edge="1" parent="3MXWrsa33R4VXwm1Q6iQ-137" source="3MXWrsa33R4VXwm1Q6iQ-3" target="3MXWrsa33R4VXwm1Q6iQ-17">
          <mxGeometry relative="1" as="geometry" />
        </mxCell>
        <mxCell id="3MXWrsa33R4VXwm1Q6iQ-14" value="Tạo tài khoản" style="rounded=0;whiteSpace=wrap;html=1;" vertex="1" parent="3MXWrsa33R4VXwm1Q6iQ-137">
          <mxGeometry x="250" y="280" width="90" height="50" as="geometry" />
        </mxCell>
        <mxCell id="3MXWrsa33R4VXwm1Q6iQ-48" style="edgeStyle=orthogonalEdgeStyle;rounded=0;orthogonalLoop=1;jettySize=auto;html=1;entryX=0;entryY=0.5;entryDx=0;entryDy=0;endArrow=none;endFill=0;" edge="1" parent="3MXWrsa33R4VXwm1Q6iQ-137" source="3MXWrsa33R4VXwm1Q6iQ-3" target="3MXWrsa33R4VXwm1Q6iQ-14">
          <mxGeometry relative="1" as="geometry" />
        </mxCell>
        <mxCell id="3MXWrsa33R4VXwm1Q6iQ-28" value="" style="edgeStyle=orthogonalEdgeStyle;rounded=0;orthogonalLoop=1;jettySize=auto;html=1;entryX=0;entryY=0.5;entryDx=0;entryDy=0;endArrow=none;endFill=0;" edge="1" parent="3MXWrsa33R4VXwm1Q6iQ-137" source="3MXWrsa33R4VXwm1Q6iQ-3" target="3MXWrsa33R4VXwm1Q6iQ-16">
          <mxGeometry relative="1" as="geometry">
            <mxPoint x="280" y="155" as="sourcePoint" />
            <mxPoint x="315" y="275" as="targetPoint" />
          </mxGeometry>
        </mxCell>
        <mxCell id="3MXWrsa33R4VXwm1Q6iQ-16" value="Xem danh sách tài khoản" style="rounded=0;whiteSpace=wrap;html=1;" vertex="1" parent="3MXWrsa33R4VXwm1Q6iQ-137">
          <mxGeometry x="250" y="210" width="90" height="50" as="geometry" />
        </mxCell>
        <mxCell id="3MXWrsa33R4VXwm1Q6iQ-29" value="Cập nhật &lt;br&gt;tài khoản" style="rounded=0;whiteSpace=wrap;html=1;" vertex="1" parent="3MXWrsa33R4VXwm1Q6iQ-137">
          <mxGeometry x="420" y="350" width="90" height="50" as="geometry" />
        </mxCell>
        <mxCell id="3MXWrsa33R4VXwm1Q6iQ-54" style="edgeStyle=orthogonalEdgeStyle;rounded=0;orthogonalLoop=1;jettySize=auto;html=1;entryX=0;entryY=0.5;entryDx=0;entryDy=0;endArrow=none;endFill=0;" edge="1" parent="3MXWrsa33R4VXwm1Q6iQ-137" source="3MXWrsa33R4VXwm1Q6iQ-4" target="3MXWrsa33R4VXwm1Q6iQ-29">
          <mxGeometry relative="1" as="geometry" />
        </mxCell>
        <mxCell id="3MXWrsa33R4VXwm1Q6iQ-30" value="Xoá tài khoản" style="rounded=0;whiteSpace=wrap;html=1;" vertex="1" parent="3MXWrsa33R4VXwm1Q6iQ-137">
          <mxGeometry x="420" y="420" width="95" height="50" as="geometry" />
        </mxCell>
        <mxCell id="3MXWrsa33R4VXwm1Q6iQ-55" style="edgeStyle=orthogonalEdgeStyle;rounded=0;orthogonalLoop=1;jettySize=auto;html=1;entryX=0;entryY=0.5;entryDx=0;entryDy=0;endArrow=none;endFill=0;" edge="1" parent="3MXWrsa33R4VXwm1Q6iQ-137" source="3MXWrsa33R4VXwm1Q6iQ-4" target="3MXWrsa33R4VXwm1Q6iQ-30">
          <mxGeometry relative="1" as="geometry" />
        </mxCell>
        <mxCell id="3MXWrsa33R4VXwm1Q6iQ-31" value="Tạo tài khoản" style="rounded=0;whiteSpace=wrap;html=1;" vertex="1" parent="3MXWrsa33R4VXwm1Q6iQ-137">
          <mxGeometry x="420" y="280" width="90" height="50" as="geometry" />
        </mxCell>
        <mxCell id="3MXWrsa33R4VXwm1Q6iQ-53" style="edgeStyle=orthogonalEdgeStyle;rounded=0;orthogonalLoop=1;jettySize=auto;html=1;entryX=0;entryY=0.5;entryDx=0;entryDy=0;endArrow=none;endFill=0;" edge="1" parent="3MXWrsa33R4VXwm1Q6iQ-137" source="3MXWrsa33R4VXwm1Q6iQ-4" target="3MXWrsa33R4VXwm1Q6iQ-31">
          <mxGeometry relative="1" as="geometry" />
        </mxCell>
        <mxCell id="3MXWrsa33R4VXwm1Q6iQ-32" value="Xem danh sách tài khoản" style="rounded=0;whiteSpace=wrap;html=1;" vertex="1" parent="3MXWrsa33R4VXwm1Q6iQ-137">
          <mxGeometry x="420" y="210" width="90" height="50" as="geometry" />
        </mxCell>
        <mxCell id="3MXWrsa33R4VXwm1Q6iQ-52" style="edgeStyle=orthogonalEdgeStyle;rounded=0;orthogonalLoop=1;jettySize=auto;html=1;entryX=0;entryY=0.5;entryDx=0;entryDy=0;endArrow=none;endFill=0;" edge="1" parent="3MXWrsa33R4VXwm1Q6iQ-137" source="3MXWrsa33R4VXwm1Q6iQ-4" target="3MXWrsa33R4VXwm1Q6iQ-32">
          <mxGeometry relative="1" as="geometry" />
        </mxCell>
        <mxCell id="3MXWrsa33R4VXwm1Q6iQ-33" value="Cập nhật &lt;br&gt;tài khoản" style="rounded=0;whiteSpace=wrap;html=1;" vertex="1" parent="3MXWrsa33R4VXwm1Q6iQ-137">
          <mxGeometry x="620" y="350" width="90" height="50" as="geometry" />
        </mxCell>
        <mxCell id="3MXWrsa33R4VXwm1Q6iQ-58" style="edgeStyle=orthogonalEdgeStyle;rounded=0;orthogonalLoop=1;jettySize=auto;html=1;entryX=0;entryY=0.5;entryDx=0;entryDy=0;endArrow=none;endFill=0;" edge="1" parent="3MXWrsa33R4VXwm1Q6iQ-137" source="3MXWrsa33R4VXwm1Q6iQ-5" target="3MXWrsa33R4VXwm1Q6iQ-33">
          <mxGeometry relative="1" as="geometry" />
        </mxCell>
        <mxCell id="3MXWrsa33R4VXwm1Q6iQ-34" value="Xoá tài khoản" style="rounded=0;whiteSpace=wrap;html=1;" vertex="1" parent="3MXWrsa33R4VXwm1Q6iQ-137">
          <mxGeometry x="617.5" y="420" width="95" height="50" as="geometry" />
        </mxCell>
        <mxCell id="3MXWrsa33R4VXwm1Q6iQ-59" style="edgeStyle=orthogonalEdgeStyle;rounded=0;orthogonalLoop=1;jettySize=auto;html=1;entryX=0;entryY=0.5;entryDx=0;entryDy=0;endArrow=none;endFill=0;" edge="1" parent="3MXWrsa33R4VXwm1Q6iQ-137" source="3MXWrsa33R4VXwm1Q6iQ-5" target="3MXWrsa33R4VXwm1Q6iQ-34">
          <mxGeometry relative="1" as="geometry" />
        </mxCell>
        <mxCell id="3MXWrsa33R4VXwm1Q6iQ-35" value="Tạo tài khoản" style="rounded=0;whiteSpace=wrap;html=1;" vertex="1" parent="3MXWrsa33R4VXwm1Q6iQ-137">
          <mxGeometry x="620" y="280" width="90" height="50" as="geometry" />
        </mxCell>
        <mxCell id="3MXWrsa33R4VXwm1Q6iQ-57" style="edgeStyle=orthogonalEdgeStyle;rounded=0;orthogonalLoop=1;jettySize=auto;html=1;entryX=0;entryY=0.75;entryDx=0;entryDy=0;endArrow=none;endFill=0;" edge="1" parent="3MXWrsa33R4VXwm1Q6iQ-137" source="3MXWrsa33R4VXwm1Q6iQ-5" target="3MXWrsa33R4VXwm1Q6iQ-35">
          <mxGeometry relative="1" as="geometry" />
        </mxCell>
        <mxCell id="3MXWrsa33R4VXwm1Q6iQ-36" value="Xem danh sách tài khoản" style="rounded=0;whiteSpace=wrap;html=1;" vertex="1" parent="3MXWrsa33R4VXwm1Q6iQ-137">
          <mxGeometry x="620" y="210" width="90" height="50" as="geometry" />
        </mxCell>
        <mxCell id="3MXWrsa33R4VXwm1Q6iQ-56" style="edgeStyle=orthogonalEdgeStyle;rounded=0;orthogonalLoop=1;jettySize=auto;html=1;entryX=0;entryY=0.5;entryDx=0;entryDy=0;endArrow=none;endFill=0;" edge="1" parent="3MXWrsa33R4VXwm1Q6iQ-137" source="3MXWrsa33R4VXwm1Q6iQ-5" target="3MXWrsa33R4VXwm1Q6iQ-36">
          <mxGeometry relative="1" as="geometry" />
        </mxCell>
        <mxCell id="3MXWrsa33R4VXwm1Q6iQ-37" value="Đặt xe" style="rounded=0;whiteSpace=wrap;html=1;" vertex="1" parent="3MXWrsa33R4VXwm1Q6iQ-137">
          <mxGeometry x="720" y="130" width="110" height="50" as="geometry" />
        </mxCell>
        <mxCell id="3MXWrsa33R4VXwm1Q6iQ-64" style="edgeStyle=orthogonalEdgeStyle;rounded=0;orthogonalLoop=1;jettySize=auto;html=1;entryX=0.5;entryY=0;entryDx=0;entryDy=0;endArrow=none;endFill=0;" edge="1" parent="3MXWrsa33R4VXwm1Q6iQ-137" source="3MXWrsa33R4VXwm1Q6iQ-1" target="3MXWrsa33R4VXwm1Q6iQ-37">
          <mxGeometry relative="1" as="geometry">
            <Array as="points">
              <mxPoint x="240" y="80" />
              <mxPoint x="775" y="80" />
            </Array>
          </mxGeometry>
        </mxCell>
        <mxCell id="3MXWrsa33R4VXwm1Q6iQ-38" value="Cập nhật thông tin chuyến xe" style="rounded=0;whiteSpace=wrap;html=1;" vertex="1" parent="3MXWrsa33R4VXwm1Q6iQ-137">
          <mxGeometry x="820" y="210" width="90" height="50" as="geometry" />
        </mxCell>
        <mxCell id="3MXWrsa33R4VXwm1Q6iQ-60" style="edgeStyle=orthogonalEdgeStyle;rounded=0;orthogonalLoop=1;jettySize=auto;html=1;entryX=0;entryY=0.5;entryDx=0;entryDy=0;endArrow=none;endFill=0;" edge="1" parent="3MXWrsa33R4VXwm1Q6iQ-137" source="3MXWrsa33R4VXwm1Q6iQ-37" target="3MXWrsa33R4VXwm1Q6iQ-38">
          <mxGeometry relative="1" as="geometry" />
        </mxCell>
        <mxCell id="3MXWrsa33R4VXwm1Q6iQ-39" value="Tìm tài xế" style="rounded=0;whiteSpace=wrap;html=1;" vertex="1" parent="3MXWrsa33R4VXwm1Q6iQ-137">
          <mxGeometry x="820" y="280" width="90" height="50" as="geometry" />
        </mxCell>
        <mxCell id="3MXWrsa33R4VXwm1Q6iQ-61" style="edgeStyle=orthogonalEdgeStyle;rounded=0;orthogonalLoop=1;jettySize=auto;html=1;entryX=0;entryY=0.5;entryDx=0;entryDy=0;endArrow=none;endFill=0;" edge="1" parent="3MXWrsa33R4VXwm1Q6iQ-137" source="3MXWrsa33R4VXwm1Q6iQ-37" target="3MXWrsa33R4VXwm1Q6iQ-39">
          <mxGeometry relative="1" as="geometry" />
        </mxCell>
        <mxCell id="3MXWrsa33R4VXwm1Q6iQ-138" value="" style="group" vertex="1" connectable="0" parent="1">
          <mxGeometry x="80" y="670" width="760" height="450" as="geometry" />
        </mxCell>
        <mxCell id="3MXWrsa33R4VXwm1Q6iQ-65" value="Ứng dụng đặt xe&lt;br&gt;( khách hàng )" style="rounded=0;whiteSpace=wrap;html=1;" vertex="1" parent="3MXWrsa33R4VXwm1Q6iQ-138">
          <mxGeometry x="130" width="140" height="40" as="geometry" />
        </mxCell>
        <mxCell id="3MXWrsa33R4VXwm1Q6iQ-66" value="Trang chủ" style="rounded=0;whiteSpace=wrap;html=1;" vertex="1" parent="3MXWrsa33R4VXwm1Q6iQ-138">
          <mxGeometry y="90" width="90" height="30" as="geometry" />
        </mxCell>
        <mxCell id="3MXWrsa33R4VXwm1Q6iQ-102" style="edgeStyle=orthogonalEdgeStyle;rounded=0;orthogonalLoop=1;jettySize=auto;html=1;entryX=0.5;entryY=0;entryDx=0;entryDy=0;endArrow=none;endFill=0;" edge="1" parent="3MXWrsa33R4VXwm1Q6iQ-138" source="3MXWrsa33R4VXwm1Q6iQ-65" target="3MXWrsa33R4VXwm1Q6iQ-66">
          <mxGeometry relative="1" as="geometry">
            <Array as="points">
              <mxPoint x="200" y="60" />
              <mxPoint x="45" y="60" />
            </Array>
          </mxGeometry>
        </mxCell>
        <mxCell id="3MXWrsa33R4VXwm1Q6iQ-68" value="Hiển thị&lt;br&gt;Form đặt xe" style="rounded=0;whiteSpace=wrap;html=1;" vertex="1" parent="3MXWrsa33R4VXwm1Q6iQ-138">
          <mxGeometry x="70" y="160" width="90" height="50" as="geometry" />
        </mxCell>
        <mxCell id="3MXWrsa33R4VXwm1Q6iQ-106" style="edgeStyle=orthogonalEdgeStyle;rounded=0;orthogonalLoop=1;jettySize=auto;html=1;entryX=0;entryY=0.5;entryDx=0;entryDy=0;endArrow=none;endFill=0;" edge="1" parent="3MXWrsa33R4VXwm1Q6iQ-138" source="3MXWrsa33R4VXwm1Q6iQ-66" target="3MXWrsa33R4VXwm1Q6iQ-68">
          <mxGeometry relative="1" as="geometry" />
        </mxCell>
        <mxCell id="3MXWrsa33R4VXwm1Q6iQ-69" value="Đặt xe" style="rounded=0;whiteSpace=wrap;html=1;" vertex="1" parent="3MXWrsa33R4VXwm1Q6iQ-138">
          <mxGeometry x="70" y="240" width="90" height="50" as="geometry" />
        </mxCell>
        <mxCell id="3MXWrsa33R4VXwm1Q6iQ-107" style="edgeStyle=orthogonalEdgeStyle;rounded=0;orthogonalLoop=1;jettySize=auto;html=1;entryX=0;entryY=0.5;entryDx=0;entryDy=0;endArrow=none;endFill=0;" edge="1" parent="3MXWrsa33R4VXwm1Q6iQ-138" source="3MXWrsa33R4VXwm1Q6iQ-66" target="3MXWrsa33R4VXwm1Q6iQ-69">
          <mxGeometry relative="1" as="geometry" />
        </mxCell>
        <mxCell id="3MXWrsa33R4VXwm1Q6iQ-70" value="Quản lý &lt;br&gt;Tài khoản" style="rounded=0;whiteSpace=wrap;html=1;" vertex="1" parent="3MXWrsa33R4VXwm1Q6iQ-138">
          <mxGeometry x="210" y="90" width="90" height="30" as="geometry" />
        </mxCell>
        <mxCell id="3MXWrsa33R4VXwm1Q6iQ-103" style="edgeStyle=orthogonalEdgeStyle;rounded=0;orthogonalLoop=1;jettySize=auto;html=1;entryX=0.5;entryY=0;entryDx=0;entryDy=0;endArrow=none;endFill=0;" edge="1" parent="3MXWrsa33R4VXwm1Q6iQ-138" source="3MXWrsa33R4VXwm1Q6iQ-65" target="3MXWrsa33R4VXwm1Q6iQ-70">
          <mxGeometry relative="1" as="geometry">
            <Array as="points">
              <mxPoint x="200" y="60" />
              <mxPoint x="255" y="60" />
            </Array>
          </mxGeometry>
        </mxCell>
        <mxCell id="3MXWrsa33R4VXwm1Q6iQ-71" value="Quản lý &lt;br&gt;Chuyến đi" style="rounded=0;whiteSpace=wrap;html=1;" vertex="1" parent="3MXWrsa33R4VXwm1Q6iQ-138">
          <mxGeometry x="387" y="90" width="90" height="30" as="geometry" />
        </mxCell>
        <mxCell id="3MXWrsa33R4VXwm1Q6iQ-104" style="edgeStyle=orthogonalEdgeStyle;rounded=0;orthogonalLoop=1;jettySize=auto;html=1;entryX=0.5;entryY=0;entryDx=0;entryDy=0;endArrow=none;endFill=0;" edge="1" parent="3MXWrsa33R4VXwm1Q6iQ-138" source="3MXWrsa33R4VXwm1Q6iQ-65" target="3MXWrsa33R4VXwm1Q6iQ-71">
          <mxGeometry relative="1" as="geometry">
            <Array as="points">
              <mxPoint x="200" y="60" />
              <mxPoint x="432" y="60" />
            </Array>
          </mxGeometry>
        </mxCell>
        <mxCell id="3MXWrsa33R4VXwm1Q6iQ-72" value="Hỗ Trợ" style="rounded=0;whiteSpace=wrap;html=1;" vertex="1" parent="3MXWrsa33R4VXwm1Q6iQ-138">
          <mxGeometry x="600" y="90" width="90" height="30" as="geometry" />
        </mxCell>
        <mxCell id="3MXWrsa33R4VXwm1Q6iQ-105" style="edgeStyle=orthogonalEdgeStyle;rounded=0;orthogonalLoop=1;jettySize=auto;html=1;entryX=0.5;entryY=0;entryDx=0;entryDy=0;endArrow=none;endFill=0;" edge="1" parent="3MXWrsa33R4VXwm1Q6iQ-138" source="3MXWrsa33R4VXwm1Q6iQ-65" target="3MXWrsa33R4VXwm1Q6iQ-72">
          <mxGeometry relative="1" as="geometry">
            <Array as="points">
              <mxPoint x="200" y="60" />
              <mxPoint x="645" y="60" />
            </Array>
          </mxGeometry>
        </mxCell>
        <mxCell id="3MXWrsa33R4VXwm1Q6iQ-73" value="Cài đặt&lt;br&gt;ngôn ngữ" style="rounded=0;whiteSpace=wrap;html=1;" vertex="1" parent="3MXWrsa33R4VXwm1Q6iQ-138">
          <mxGeometry x="280" y="160" width="90" height="50" as="geometry" />
        </mxCell>
        <mxCell id="3MXWrsa33R4VXwm1Q6iQ-110" style="edgeStyle=orthogonalEdgeStyle;rounded=0;orthogonalLoop=1;jettySize=auto;html=1;entryX=0;entryY=0.5;entryDx=0;entryDy=0;endArrow=none;endFill=0;" edge="1" parent="3MXWrsa33R4VXwm1Q6iQ-138" source="3MXWrsa33R4VXwm1Q6iQ-70" target="3MXWrsa33R4VXwm1Q6iQ-73">
          <mxGeometry relative="1" as="geometry" />
        </mxCell>
        <mxCell id="3MXWrsa33R4VXwm1Q6iQ-74" value="Cài đặt&lt;br&gt;mật khẩu" style="rounded=0;whiteSpace=wrap;html=1;" vertex="1" parent="3MXWrsa33R4VXwm1Q6iQ-138">
          <mxGeometry x="280" y="240" width="90" height="50" as="geometry" />
        </mxCell>
        <mxCell id="3MXWrsa33R4VXwm1Q6iQ-111" style="edgeStyle=orthogonalEdgeStyle;rounded=0;orthogonalLoop=1;jettySize=auto;html=1;entryX=0;entryY=0.5;entryDx=0;entryDy=0;endArrow=none;endFill=0;" edge="1" parent="3MXWrsa33R4VXwm1Q6iQ-138" source="3MXWrsa33R4VXwm1Q6iQ-70" target="3MXWrsa33R4VXwm1Q6iQ-74">
          <mxGeometry relative="1" as="geometry" />
        </mxCell>
        <mxCell id="3MXWrsa33R4VXwm1Q6iQ-75" value="Xem thông tin chuyến đi đã lưu" style="rounded=0;whiteSpace=wrap;html=1;" vertex="1" parent="3MXWrsa33R4VXwm1Q6iQ-138">
          <mxGeometry x="455" y="160" width="90" height="50" as="geometry" />
        </mxCell>
        <mxCell id="3MXWrsa33R4VXwm1Q6iQ-112" style="edgeStyle=orthogonalEdgeStyle;rounded=0;orthogonalLoop=1;jettySize=auto;html=1;entryX=0;entryY=0.5;entryDx=0;entryDy=0;endArrow=none;endFill=0;" edge="1" parent="3MXWrsa33R4VXwm1Q6iQ-138" source="3MXWrsa33R4VXwm1Q6iQ-71" target="3MXWrsa33R4VXwm1Q6iQ-75">
          <mxGeometry relative="1" as="geometry" />
        </mxCell>
        <mxCell id="3MXWrsa33R4VXwm1Q6iQ-76" value="Xem thông tin địa điểm đã lưu" style="rounded=0;whiteSpace=wrap;html=1;" vertex="1" parent="3MXWrsa33R4VXwm1Q6iQ-138">
          <mxGeometry x="455" y="240" width="90" height="50" as="geometry" />
        </mxCell>
        <mxCell id="3MXWrsa33R4VXwm1Q6iQ-113" style="edgeStyle=orthogonalEdgeStyle;rounded=0;orthogonalLoop=1;jettySize=auto;html=1;entryX=0;entryY=0.5;entryDx=0;entryDy=0;endArrow=none;endFill=0;" edge="1" parent="3MXWrsa33R4VXwm1Q6iQ-138" source="3MXWrsa33R4VXwm1Q6iQ-71" target="3MXWrsa33R4VXwm1Q6iQ-76">
          <mxGeometry relative="1" as="geometry" />
        </mxCell>
        <mxCell id="3MXWrsa33R4VXwm1Q6iQ-77" value="Thêm người liên hệ &lt;br&gt;khẩn cấp" style="rounded=0;whiteSpace=wrap;html=1;" vertex="1" parent="3MXWrsa33R4VXwm1Q6iQ-138">
          <mxGeometry x="455" y="320" width="90" height="50" as="geometry" />
        </mxCell>
        <mxCell id="3MXWrsa33R4VXwm1Q6iQ-114" style="edgeStyle=orthogonalEdgeStyle;rounded=0;orthogonalLoop=1;jettySize=auto;html=1;entryX=0;entryY=0.5;entryDx=0;entryDy=0;endArrow=none;endFill=0;" edge="1" parent="3MXWrsa33R4VXwm1Q6iQ-138" source="3MXWrsa33R4VXwm1Q6iQ-71" target="3MXWrsa33R4VXwm1Q6iQ-77">
          <mxGeometry relative="1" as="geometry" />
        </mxCell>
        <mxCell id="3MXWrsa33R4VXwm1Q6iQ-78" value="Liên hệ qua email" style="rounded=0;whiteSpace=wrap;html=1;" vertex="1" parent="3MXWrsa33R4VXwm1Q6iQ-138">
          <mxGeometry x="670" y="160" width="90" height="50" as="geometry" />
        </mxCell>
        <mxCell id="3MXWrsa33R4VXwm1Q6iQ-115" style="edgeStyle=orthogonalEdgeStyle;rounded=0;orthogonalLoop=1;jettySize=auto;html=1;entryX=0;entryY=0.5;entryDx=0;entryDy=0;endArrow=none;endFill=0;" edge="1" parent="3MXWrsa33R4VXwm1Q6iQ-138" source="3MXWrsa33R4VXwm1Q6iQ-72" target="3MXWrsa33R4VXwm1Q6iQ-78">
          <mxGeometry relative="1" as="geometry" />
        </mxCell>
        <mxCell id="3MXWrsa33R4VXwm1Q6iQ-79" value="Liên hệ qua số điện thoại" style="rounded=0;whiteSpace=wrap;html=1;" vertex="1" parent="3MXWrsa33R4VXwm1Q6iQ-138">
          <mxGeometry x="670" y="240" width="90" height="50" as="geometry" />
        </mxCell>
        <mxCell id="3MXWrsa33R4VXwm1Q6iQ-116" style="edgeStyle=orthogonalEdgeStyle;rounded=0;orthogonalLoop=1;jettySize=auto;html=1;entryX=0;entryY=0.5;entryDx=0;entryDy=0;endArrow=none;endFill=0;" edge="1" parent="3MXWrsa33R4VXwm1Q6iQ-138" source="3MXWrsa33R4VXwm1Q6iQ-72" target="3MXWrsa33R4VXwm1Q6iQ-79">
          <mxGeometry relative="1" as="geometry" />
        </mxCell>
        <mxCell id="3MXWrsa33R4VXwm1Q6iQ-80" value="Chat box" style="rounded=0;whiteSpace=wrap;html=1;" vertex="1" parent="3MXWrsa33R4VXwm1Q6iQ-138">
          <mxGeometry x="670" y="320" width="90" height="50" as="geometry" />
        </mxCell>
        <mxCell id="3MXWrsa33R4VXwm1Q6iQ-117" style="edgeStyle=orthogonalEdgeStyle;rounded=0;orthogonalLoop=1;jettySize=auto;html=1;entryX=0;entryY=0.5;entryDx=0;entryDy=0;endArrow=none;endFill=0;" edge="1" parent="3MXWrsa33R4VXwm1Q6iQ-138" source="3MXWrsa33R4VXwm1Q6iQ-72" target="3MXWrsa33R4VXwm1Q6iQ-80">
          <mxGeometry relative="1" as="geometry" />
        </mxCell>
        <mxCell id="3MXWrsa33R4VXwm1Q6iQ-81" value="Huỷ chuyến" style="rounded=0;whiteSpace=wrap;html=1;" vertex="1" parent="3MXWrsa33R4VXwm1Q6iQ-138">
          <mxGeometry x="70" y="320" width="90" height="50" as="geometry" />
        </mxCell>
        <mxCell id="3MXWrsa33R4VXwm1Q6iQ-108" style="edgeStyle=orthogonalEdgeStyle;rounded=0;orthogonalLoop=1;jettySize=auto;html=1;entryX=0;entryY=0.5;entryDx=0;entryDy=0;endArrow=none;endFill=0;" edge="1" parent="3MXWrsa33R4VXwm1Q6iQ-138" source="3MXWrsa33R4VXwm1Q6iQ-66" target="3MXWrsa33R4VXwm1Q6iQ-81">
          <mxGeometry relative="1" as="geometry" />
        </mxCell>
        <mxCell id="3MXWrsa33R4VXwm1Q6iQ-82" value="Đánh giá tài xế" style="rounded=0;whiteSpace=wrap;html=1;" vertex="1" parent="3MXWrsa33R4VXwm1Q6iQ-138">
          <mxGeometry x="70" y="400" width="90" height="50" as="geometry" />
        </mxCell>
        <mxCell id="3MXWrsa33R4VXwm1Q6iQ-109" style="edgeStyle=orthogonalEdgeStyle;rounded=0;orthogonalLoop=1;jettySize=auto;html=1;entryX=0;entryY=0.5;entryDx=0;entryDy=0;endArrow=none;endFill=0;" edge="1" parent="3MXWrsa33R4VXwm1Q6iQ-138" source="3MXWrsa33R4VXwm1Q6iQ-66" target="3MXWrsa33R4VXwm1Q6iQ-82">
          <mxGeometry relative="1" as="geometry" />
        </mxCell>
        <mxCell id="3MXWrsa33R4VXwm1Q6iQ-139" value="" style="group" vertex="1" connectable="0" parent="1">
          <mxGeometry x="80" y="1170" width="742.5" height="530" as="geometry" />
        </mxCell>
        <mxCell id="3MXWrsa33R4VXwm1Q6iQ-84" value="Ứng dụng nhận chuyến xe&lt;br&gt;(Tài xế)" style="rounded=0;whiteSpace=wrap;html=1;" vertex="1" parent="3MXWrsa33R4VXwm1Q6iQ-139">
          <mxGeometry x="147.5" width="175" height="40" as="geometry" />
        </mxCell>
        <mxCell id="3MXWrsa33R4VXwm1Q6iQ-85" value="Trang chủ" style="rounded=0;whiteSpace=wrap;html=1;" vertex="1" parent="3MXWrsa33R4VXwm1Q6iQ-139">
          <mxGeometry y="90" width="90" height="30" as="geometry" />
        </mxCell>
        <mxCell id="3MXWrsa33R4VXwm1Q6iQ-119" style="edgeStyle=orthogonalEdgeStyle;rounded=0;orthogonalLoop=1;jettySize=auto;html=1;entryX=0.5;entryY=0;entryDx=0;entryDy=0;endArrow=none;endFill=0;" edge="1" parent="3MXWrsa33R4VXwm1Q6iQ-139" source="3MXWrsa33R4VXwm1Q6iQ-84" target="3MXWrsa33R4VXwm1Q6iQ-85">
          <mxGeometry relative="1" as="geometry">
            <Array as="points">
              <mxPoint x="233" y="60" />
              <mxPoint x="45" y="60" />
            </Array>
          </mxGeometry>
        </mxCell>
        <mxCell id="3MXWrsa33R4VXwm1Q6iQ-86" value="Quản lý &lt;br&gt;Tài khoản" style="rounded=0;whiteSpace=wrap;html=1;" vertex="1" parent="3MXWrsa33R4VXwm1Q6iQ-139">
          <mxGeometry x="170" y="90" width="90" height="30" as="geometry" />
        </mxCell>
        <mxCell id="3MXWrsa33R4VXwm1Q6iQ-123" style="edgeStyle=orthogonalEdgeStyle;rounded=0;orthogonalLoop=1;jettySize=auto;html=1;entryX=0.5;entryY=0;entryDx=0;entryDy=0;endArrow=none;endFill=0;" edge="1" parent="3MXWrsa33R4VXwm1Q6iQ-139" source="3MXWrsa33R4VXwm1Q6iQ-84" target="3MXWrsa33R4VXwm1Q6iQ-86">
          <mxGeometry relative="1" as="geometry">
            <Array as="points">
              <mxPoint x="235" y="60" />
              <mxPoint x="215" y="60" />
            </Array>
          </mxGeometry>
        </mxCell>
        <mxCell id="3MXWrsa33R4VXwm1Q6iQ-87" value="Trung tâm &lt;br&gt;trợ giúp" style="rounded=0;whiteSpace=wrap;html=1;" vertex="1" parent="3MXWrsa33R4VXwm1Q6iQ-139">
          <mxGeometry x="387" y="90" width="90" height="30" as="geometry" />
        </mxCell>
        <mxCell id="3MXWrsa33R4VXwm1Q6iQ-121" style="edgeStyle=orthogonalEdgeStyle;rounded=0;orthogonalLoop=1;jettySize=auto;html=1;entryX=0.5;entryY=0;entryDx=0;entryDy=0;endArrow=none;endFill=0;" edge="1" parent="3MXWrsa33R4VXwm1Q6iQ-139" source="3MXWrsa33R4VXwm1Q6iQ-84" target="3MXWrsa33R4VXwm1Q6iQ-87">
          <mxGeometry relative="1" as="geometry">
            <Array as="points">
              <mxPoint x="235" y="60" />
              <mxPoint x="432" y="60" />
            </Array>
          </mxGeometry>
        </mxCell>
        <mxCell id="3MXWrsa33R4VXwm1Q6iQ-88" value="Quản lý &lt;br&gt;chuyến đi" style="rounded=0;whiteSpace=wrap;html=1;" vertex="1" parent="3MXWrsa33R4VXwm1Q6iQ-139">
          <mxGeometry x="580" y="90" width="90" height="30" as="geometry" />
        </mxCell>
        <mxCell id="3MXWrsa33R4VXwm1Q6iQ-122" style="edgeStyle=orthogonalEdgeStyle;rounded=0;orthogonalLoop=1;jettySize=auto;html=1;entryX=0.5;entryY=0;entryDx=0;entryDy=0;endArrow=none;endFill=0;" edge="1" parent="3MXWrsa33R4VXwm1Q6iQ-139" source="3MXWrsa33R4VXwm1Q6iQ-84" target="3MXWrsa33R4VXwm1Q6iQ-88">
          <mxGeometry relative="1" as="geometry">
            <Array as="points">
              <mxPoint x="235" y="60" />
              <mxPoint x="625" y="60" />
            </Array>
          </mxGeometry>
        </mxCell>
        <mxCell id="3MXWrsa33R4VXwm1Q6iQ-89" value="Bật/tắt &lt;br&gt;trạng thái" style="rounded=0;whiteSpace=wrap;html=1;" vertex="1" parent="3MXWrsa33R4VXwm1Q6iQ-139">
          <mxGeometry x="70" y="160" width="90" height="50" as="geometry" />
        </mxCell>
        <mxCell id="3MXWrsa33R4VXwm1Q6iQ-124" style="edgeStyle=orthogonalEdgeStyle;rounded=0;orthogonalLoop=1;jettySize=auto;html=1;entryX=0;entryY=0.5;entryDx=0;entryDy=0;endArrow=none;endFill=0;" edge="1" parent="3MXWrsa33R4VXwm1Q6iQ-139" source="3MXWrsa33R4VXwm1Q6iQ-85" target="3MXWrsa33R4VXwm1Q6iQ-89">
          <mxGeometry relative="1" as="geometry" />
        </mxCell>
        <mxCell id="3MXWrsa33R4VXwm1Q6iQ-90" value="Hiển thị &lt;br&gt;thông tin chi tiết chuyến xe" style="rounded=0;whiteSpace=wrap;html=1;" vertex="1" parent="3MXWrsa33R4VXwm1Q6iQ-139">
          <mxGeometry x="70" y="240" width="90" height="50" as="geometry" />
        </mxCell>
        <mxCell id="3MXWrsa33R4VXwm1Q6iQ-125" style="edgeStyle=orthogonalEdgeStyle;rounded=0;orthogonalLoop=1;jettySize=auto;html=1;entryX=0;entryY=0.5;entryDx=0;entryDy=0;endArrow=none;endFill=0;" edge="1" parent="3MXWrsa33R4VXwm1Q6iQ-139" source="3MXWrsa33R4VXwm1Q6iQ-85" target="3MXWrsa33R4VXwm1Q6iQ-90">
          <mxGeometry relative="1" as="geometry" />
        </mxCell>
        <mxCell id="3MXWrsa33R4VXwm1Q6iQ-91" value="Xác nhận&lt;br&gt;nhận chuyến" style="rounded=0;whiteSpace=wrap;html=1;" vertex="1" parent="3MXWrsa33R4VXwm1Q6iQ-139">
          <mxGeometry x="70" y="320" width="90" height="50" as="geometry" />
        </mxCell>
        <mxCell id="3MXWrsa33R4VXwm1Q6iQ-126" style="edgeStyle=orthogonalEdgeStyle;rounded=0;orthogonalLoop=1;jettySize=auto;html=1;entryX=0;entryY=0.5;entryDx=0;entryDy=0;endArrow=none;endFill=0;" edge="1" parent="3MXWrsa33R4VXwm1Q6iQ-139" source="3MXWrsa33R4VXwm1Q6iQ-85" target="3MXWrsa33R4VXwm1Q6iQ-91">
          <mxGeometry relative="1" as="geometry" />
        </mxCell>
        <mxCell id="3MXWrsa33R4VXwm1Q6iQ-92" value="Huỷ chuyến" style="rounded=0;whiteSpace=wrap;html=1;" vertex="1" parent="3MXWrsa33R4VXwm1Q6iQ-139">
          <mxGeometry x="70" y="400" width="90" height="50" as="geometry" />
        </mxCell>
        <mxCell id="3MXWrsa33R4VXwm1Q6iQ-127" style="edgeStyle=orthogonalEdgeStyle;rounded=0;orthogonalLoop=1;jettySize=auto;html=1;entryX=0;entryY=0.5;entryDx=0;entryDy=0;endArrow=none;endFill=0;" edge="1" parent="3MXWrsa33R4VXwm1Q6iQ-139" source="3MXWrsa33R4VXwm1Q6iQ-85" target="3MXWrsa33R4VXwm1Q6iQ-92">
          <mxGeometry relative="1" as="geometry" />
        </mxCell>
        <mxCell id="3MXWrsa33R4VXwm1Q6iQ-93" value="Liên hệ &lt;br&gt;Khách hàng" style="rounded=0;whiteSpace=wrap;html=1;" vertex="1" parent="3MXWrsa33R4VXwm1Q6iQ-139">
          <mxGeometry x="70" y="480" width="90" height="50" as="geometry" />
        </mxCell>
        <mxCell id="3MXWrsa33R4VXwm1Q6iQ-128" style="edgeStyle=orthogonalEdgeStyle;rounded=0;orthogonalLoop=1;jettySize=auto;html=1;entryX=0;entryY=0.5;entryDx=0;entryDy=0;endArrow=none;endFill=0;" edge="1" parent="3MXWrsa33R4VXwm1Q6iQ-139" source="3MXWrsa33R4VXwm1Q6iQ-85" target="3MXWrsa33R4VXwm1Q6iQ-93">
          <mxGeometry relative="1" as="geometry" />
        </mxCell>
        <mxCell id="3MXWrsa33R4VXwm1Q6iQ-94" value="Cài đặt&lt;br&gt;ngôn ngữ" style="rounded=0;whiteSpace=wrap;html=1;" vertex="1" parent="3MXWrsa33R4VXwm1Q6iQ-139">
          <mxGeometry x="260" y="160" width="90" height="50" as="geometry" />
        </mxCell>
        <mxCell id="3MXWrsa33R4VXwm1Q6iQ-129" style="edgeStyle=orthogonalEdgeStyle;rounded=0;orthogonalLoop=1;jettySize=auto;html=1;entryX=0;entryY=0.5;entryDx=0;entryDy=0;endArrow=none;endFill=0;" edge="1" parent="3MXWrsa33R4VXwm1Q6iQ-139" source="3MXWrsa33R4VXwm1Q6iQ-86" target="3MXWrsa33R4VXwm1Q6iQ-94">
          <mxGeometry relative="1" as="geometry" />
        </mxCell>
        <mxCell id="3MXWrsa33R4VXwm1Q6iQ-95" value="Cài đặt&lt;br&gt;mật khẩu" style="rounded=0;whiteSpace=wrap;html=1;" vertex="1" parent="3MXWrsa33R4VXwm1Q6iQ-139">
          <mxGeometry x="260" y="240" width="90" height="50" as="geometry" />
        </mxCell>
        <mxCell id="3MXWrsa33R4VXwm1Q6iQ-130" style="edgeStyle=orthogonalEdgeStyle;rounded=0;orthogonalLoop=1;jettySize=auto;html=1;entryX=0;entryY=0.5;entryDx=0;entryDy=0;endArrow=none;endFill=0;" edge="1" parent="3MXWrsa33R4VXwm1Q6iQ-139" source="3MXWrsa33R4VXwm1Q6iQ-86" target="3MXWrsa33R4VXwm1Q6iQ-95">
          <mxGeometry relative="1" as="geometry" />
        </mxCell>
        <mxCell id="3MXWrsa33R4VXwm1Q6iQ-96" value="Hiển thị &lt;br&gt;chính sách,&lt;br&gt;điều khoản" style="rounded=0;whiteSpace=wrap;html=1;" vertex="1" parent="3MXWrsa33R4VXwm1Q6iQ-139">
          <mxGeometry x="455" y="160" width="90" height="50" as="geometry" />
        </mxCell>
        <mxCell id="3MXWrsa33R4VXwm1Q6iQ-133" style="edgeStyle=orthogonalEdgeStyle;rounded=0;orthogonalLoop=1;jettySize=auto;html=1;entryX=0;entryY=0.5;entryDx=0;entryDy=0;endArrow=none;endFill=0;" edge="1" parent="3MXWrsa33R4VXwm1Q6iQ-139" source="3MXWrsa33R4VXwm1Q6iQ-87" target="3MXWrsa33R4VXwm1Q6iQ-96">
          <mxGeometry relative="1" as="geometry" />
        </mxCell>
        <mxCell id="3MXWrsa33R4VXwm1Q6iQ-97" value="Hiển thị &lt;br&gt;email/tổng đài&lt;br&gt;hỗ trợ" style="rounded=0;whiteSpace=wrap;html=1;" vertex="1" parent="3MXWrsa33R4VXwm1Q6iQ-139">
          <mxGeometry x="455" y="240" width="90" height="50" as="geometry" />
        </mxCell>
        <mxCell id="3MXWrsa33R4VXwm1Q6iQ-134" style="edgeStyle=orthogonalEdgeStyle;rounded=0;orthogonalLoop=1;jettySize=auto;html=1;entryX=0;entryY=0.5;entryDx=0;entryDy=0;endArrow=none;endFill=0;" edge="1" parent="3MXWrsa33R4VXwm1Q6iQ-139" source="3MXWrsa33R4VXwm1Q6iQ-87" target="3MXWrsa33R4VXwm1Q6iQ-97">
          <mxGeometry relative="1" as="geometry" />
        </mxCell>
        <mxCell id="3MXWrsa33R4VXwm1Q6iQ-98" value="Hiển thị lịch sử &lt;br&gt;các chuyến xe" style="rounded=0;whiteSpace=wrap;html=1;" vertex="1" parent="3MXWrsa33R4VXwm1Q6iQ-139">
          <mxGeometry x="652.5" y="160" width="90" height="50" as="geometry" />
        </mxCell>
        <mxCell id="3MXWrsa33R4VXwm1Q6iQ-135" style="edgeStyle=orthogonalEdgeStyle;rounded=0;orthogonalLoop=1;jettySize=auto;html=1;entryX=0;entryY=0.5;entryDx=0;entryDy=0;endArrow=none;endFill=0;" edge="1" parent="3MXWrsa33R4VXwm1Q6iQ-139" source="3MXWrsa33R4VXwm1Q6iQ-88" target="3MXWrsa33R4VXwm1Q6iQ-98">
          <mxGeometry relative="1" as="geometry" />
        </mxCell>
        <mxCell id="3MXWrsa33R4VXwm1Q6iQ-99" value="Hiển thị&lt;br&gt;thu nhập theo từng chuyến" style="rounded=0;whiteSpace=wrap;html=1;" vertex="1" parent="3MXWrsa33R4VXwm1Q6iQ-139">
          <mxGeometry x="652.5" y="240" width="90" height="50" as="geometry" />
        </mxCell>
        <mxCell id="3MXWrsa33R4VXwm1Q6iQ-136" style="edgeStyle=orthogonalEdgeStyle;rounded=0;orthogonalLoop=1;jettySize=auto;html=1;entryX=0;entryY=0.5;entryDx=0;entryDy=0;endArrow=none;endFill=0;" edge="1" parent="3MXWrsa33R4VXwm1Q6iQ-139" source="3MXWrsa33R4VXwm1Q6iQ-88" target="3MXWrsa33R4VXwm1Q6iQ-99">
          <mxGeometry relative="1" as="geometry" />
        </mxCell>
        <mxCell id="3MXWrsa33R4VXwm1Q6iQ-101" value="Hiển thị&lt;br&gt;cấp độ Tài xế" style="rounded=0;whiteSpace=wrap;html=1;" vertex="1" parent="3MXWrsa33R4VXwm1Q6iQ-139">
          <mxGeometry x="260" y="320" width="90" height="50" as="geometry" />
        </mxCell>
        <mxCell id="3MXWrsa33R4VXwm1Q6iQ-131" style="edgeStyle=orthogonalEdgeStyle;rounded=0;orthogonalLoop=1;jettySize=auto;html=1;entryX=0;entryY=0.5;entryDx=0;entryDy=0;endArrow=none;endFill=0;" edge="1" parent="3MXWrsa33R4VXwm1Q6iQ-139" source="3MXWrsa33R4VXwm1Q6iQ-86" target="3MXWrsa33R4VXwm1Q6iQ-101">
          <mxGeometry relative="1" as="geometry" />
        </mxCell>
        <mxCell id="3MXWrsa33R4VXwm1Q6iQ-118" style="edgeStyle=orthogonalEdgeStyle;rounded=0;orthogonalLoop=1;jettySize=auto;html=1;exitX=0.5;exitY=1;exitDx=0;exitDy=0;" edge="1" parent="3MXWrsa33R4VXwm1Q6iQ-139" source="3MXWrsa33R4VXwm1Q6iQ-87" target="3MXWrsa33R4VXwm1Q6iQ-87">
          <mxGeometry relative="1" as="geometry" />
        </mxCell>
        <mxCell id="3MXWrsa33R4VXwm1Q6iQ-150" value="" style="group" vertex="1" connectable="0" parent="1">
          <mxGeometry x="190" y="-100" width="560" height="140" as="geometry" />
        </mxCell>
        <mxCell id="3MXWrsa33R4VXwm1Q6iQ-141" value="Hệ thống đặt xe" style="rounded=0;whiteSpace=wrap;html=1;" vertex="1" parent="3MXWrsa33R4VXwm1Q6iQ-150">
          <mxGeometry x="210" width="140" height="40" as="geometry" />
        </mxCell>
        <mxCell id="3MXWrsa33R4VXwm1Q6iQ-144" value="Hệ thống Quản lý CMS&lt;br&gt;(Admin, Tổng đài viên)" style="rounded=0;whiteSpace=wrap;html=1;" vertex="1" parent="3MXWrsa33R4VXwm1Q6iQ-150">
          <mxGeometry y="100" width="140" height="40" as="geometry" />
        </mxCell>
        <mxCell id="3MXWrsa33R4VXwm1Q6iQ-147" style="edgeStyle=orthogonalEdgeStyle;rounded=0;orthogonalLoop=1;jettySize=auto;html=1;endArrow=none;endFill=0;" edge="1" parent="3MXWrsa33R4VXwm1Q6iQ-150" source="3MXWrsa33R4VXwm1Q6iQ-141" target="3MXWrsa33R4VXwm1Q6iQ-144">
          <mxGeometry relative="1" as="geometry">
            <Array as="points">
              <mxPoint x="280" y="70" />
              <mxPoint x="70" y="70" />
            </Array>
          </mxGeometry>
        </mxCell>
        <mxCell id="3MXWrsa33R4VXwm1Q6iQ-145" value="Ứng dụng đặt xe&lt;br&gt;(khách hàng)" style="rounded=0;whiteSpace=wrap;html=1;" vertex="1" parent="3MXWrsa33R4VXwm1Q6iQ-150">
          <mxGeometry x="210" y="100" width="140" height="40" as="geometry" />
        </mxCell>
        <mxCell id="3MXWrsa33R4VXwm1Q6iQ-148" style="edgeStyle=orthogonalEdgeStyle;rounded=0;orthogonalLoop=1;jettySize=auto;html=1;endArrow=none;endFill=0;" edge="1" parent="3MXWrsa33R4VXwm1Q6iQ-150" source="3MXWrsa33R4VXwm1Q6iQ-141" target="3MXWrsa33R4VXwm1Q6iQ-145">
          <mxGeometry relative="1" as="geometry" />
        </mxCell>
        <mxCell id="3MXWrsa33R4VXwm1Q6iQ-146" value="Ứng dụng đặt chuyến xe&lt;br&gt;(Tài xế" style="rounded=0;whiteSpace=wrap;html=1;" vertex="1" parent="3MXWrsa33R4VXwm1Q6iQ-150">
          <mxGeometry x="420" y="100" width="140" height="40" as="geometry" />
        </mxCell>
        <mxCell id="3MXWrsa33R4VXwm1Q6iQ-149" style="edgeStyle=orthogonalEdgeStyle;rounded=0;orthogonalLoop=1;jettySize=auto;html=1;endArrow=none;endFill=0;" edge="1" parent="3MXWrsa33R4VXwm1Q6iQ-150" source="3MXWrsa33R4VXwm1Q6iQ-141" target="3MXWrsa33R4VXwm1Q6iQ-146">
          <mxGeometry relative="1" as="geometry">
            <Array as="points">
              <mxPoint x="280" y="70" />
              <mxPoint x="490" y="70" />
            </Array>
          </mxGeometry>
        </mxCell>
      </root>
    </mxGraphModel>
  </diagram>
</mxfile>
